<svg data-v-423bf9ae="" xmlns="http://www.w3.org/2000/svg" viewBox="0 0 596 112" class="iconLeft"><g data-v-423bf9ae="" id="f2912a1f-a24e-4124-8b79-e47dc1fbea8b" fill="white" transform="matrix(5.687203688649477,0,0,5.687203688649477,127.9831460055851,7.185888274489635)"><path d="M4.48 3.72C2.60 3.72 0.94 4.77 0.94 6.58C0.94 8.43 2.20 9.11 4.27 9.63C5.59 9.94 6.03 10.40 6.03 11.07C6.03 11.73 5.40 12.15 4.61 12.15C3.72 12.15 2.95 11.68 2.76 10.68L0.55 10.68C0.71 12.77 2.28 13.78 4.65 13.78C6.58 13.78 8.33 12.77 8.33 10.89C8.33 9.37 7.41 8.36 5.28 7.85C3.72 7.49 3.23 7.10 3.23 6.37C3.23 5.67 3.72 5.35 4.41 5.35C5.33 5.35 5.84 5.92 5.95 6.82L8.16 6.82C7.95 5.07 6.89 3.72 4.48 3.72ZM14.21 3.72C11.21 3.72 9.35 5.68 9.35 8.75C9.35 11.80 11.21 13.78 14.21 13.78C17.19 13.78 19.05 11.80 19.05 8.75C19.05 5.68 17.19 3.72 14.21 3.72ZM14.21 12.15C12.60 12.15 11.62 10.91 11.62 8.75C11.62 6.58 12.60 5.35 14.21 5.35C15.81 5.35 16.79 6.58 16.79 8.75C16.79 10.91 15.81 12.15 14.21 12.15ZM23.95 3.72C22.08 3.72 20.41 4.77 20.41 6.58C20.41 8.43 21.67 9.11 23.74 9.63C25.06 9.94 25.51 10.40 25.51 11.07C25.51 11.73 24.88 12.15 24.08 12.15C23.20 12.15 22.43 11.68 22.23 10.68L20.02 10.68C20.19 12.77 21.76 13.78 24.12 13.78C26.05 13.78 27.80 12.77 27.80 10.89C27.80 9.37 26.88 8.36 24.75 7.85C23.20 7.49 22.71 7.10 22.71 6.37C22.71 5.67 23.20 5.35 23.88 5.35C24.81 5.35 25.31 5.92 25.42 6.82L27.64 6.82C27.43 5.07 26.36 3.72 23.95 3.72ZM39.06 11.86L34.09 11.86L34.09 9.59L38.60 9.59L38.60 7.88L34.09 7.88L34.09 5.63L38.92 5.63L38.92 3.92L31.89 3.92L31.89 13.58L39.06 13.58ZM42.43 3.29L40.24 3.29L40.24 11.07C40.24 11.59 40.24 11.96 40.26 12.32C40.32 13.30 40.94 13.71 41.99 13.71C42.48 13.71 42.88 13.68 43.30 13.64L43.30 12.14C42.64 12.17 42.49 12.05 42.45 11.72C42.43 11.52 42.43 11.35 42.43 11.03ZM51.38 9.72C51.38 7.73 50.15 5.92 47.77 5.92C45.40 5.92 43.90 7.63 43.90 9.87C43.90 12.50 45.54 13.78 47.63 13.78C49.45 13.78 50.85 12.87 51.25 11.14L49.08 11.14C48.96 11.84 48.44 12.26 47.67 12.26C46.84 12.26 46.23 11.84 46.10 10.42L51.34 10.42C51.37 10.15 51.38 9.91 51.38 9.72ZM47.67 7.43C48.48 7.43 48.97 7.98 49.10 9.03L46.16 9.03C46.34 7.92 46.89 7.43 47.67 7.43ZM55.96 5.92C53.84 5.92 52.14 7.35 52.14 9.91C52.14 12.45 53.70 13.78 55.78 13.78C57.72 13.78 59.15 12.81 59.44 10.93L57.27 10.93C57.11 11.80 56.57 12.26 55.90 12.26C54.99 12.26 54.39 11.51 54.39 9.77C54.39 8.19 54.98 7.43 55.90 7.43C56.63 7.43 57.15 7.85 57.30 8.88L59.44 8.88C59.33 7.21 58.04 5.92 55.96 5.92ZM63.25 7.57L64.83 7.57L64.83 6.17L63.25 6.17L63.25 4.30L61.05 4.30L61.05 6.17L59.92 6.17L59.92 7.57L61.05 7.57L61.05 11.00C61.05 11.42 61.05 11.76 61.08 12.14C61.17 13.23 61.70 13.76 63.34 13.76C63.81 13.76 64.25 13.72 64.69 13.65L64.69 12.25C63.57 12.32 63.32 12.15 63.27 11.41C63.25 11.21 63.25 10.96 63.25 10.71ZM70.03 5.92C69.59 5.92 69.05 6.12 68.67 6.51L68.11 7.55L68.11 6.12L65.91 6.12L65.91 13.58L68.11 13.58L68.11 10.46C68.11 8.34 68.85 7.64 70.59 7.76L70.59 5.98C70.42 5.95 70.27 5.92 70.03 5.92ZM72.58 3.23C71.88 3.23 71.41 3.67 71.41 4.34C71.41 5.03 71.88 5.46 72.58 5.46C73.28 5.46 73.75 5.03 73.75 4.34C73.75 3.67 73.28 3.23 72.58 3.23ZM73.68 13.58L73.68 6.12L71.48 6.12L71.48 13.58ZM78.71 5.92C76.59 5.92 74.89 7.35 74.89 9.91C74.89 12.45 76.45 13.78 78.53 13.78C80.47 13.78 81.90 12.81 82.19 10.93L80.02 10.93C79.86 11.80 79.32 12.26 78.65 12.26C77.74 12.26 77.14 11.51 77.14 9.77C77.14 8.19 77.73 7.43 78.65 7.43C79.38 7.43 79.90 7.85 80.05 8.88L82.19 8.88C82.08 7.21 80.79 5.92 78.71 5.92Z"></path></g><g data-v-423bf9ae="" id="3068cd0e-7874-44e0-82a1-4f517865c588" transform="matrix(1.1111111111111112,0,0,1.1111111111111112,0.44444444444444287,0.44444444444444287)" stroke="none" fill="white"><path d="M100 0 25 50l18.75 12.5L0 100l75-37.5L56.25 50z"></path></g></svg>